<svg xmlns="http://www.w3.org/2000/svg" width="32" height="32" viewBox="0 0 32 32">
    <defs>
        <filter id="22tx14p18a" color-interpolation-filters="auto">
            <feColorMatrix in="SourceGraphic" values="0 0 0 0 0.000000 0 0 0 0 0.250980 0 0 0 0 0.592157 0 0 0 1.000000 0"/>
        </filter>
    </defs>
    <g fill="none" fill-rule="evenodd">
        <g>
            <g filter="url(#22tx14p18a)" transform="translate(-429.000000, -614.000000) translate(429.000000, 614.000000)">
                <path fill="#000" stroke="#000" d="M16 7.349c.243 0 .486.08.687.241h0l8 6.4c.261.209.413.525.413.859h0V24c0 .304-.123.579-.322.778-.2.199-.474.322-.778.322h0H8c-.304 0-.579-.123-.778-.322-.199-.2-.322-.474-.322-.778h0v-9.151c0-.334.152-.65.413-.859h0l8-6.4c.2-.16.444-.241.687-.241z"/>
            </g>
        </g>
    </g>
</svg>
