<svg xmlns="http://www.w3.org/2000/svg" width="48" height="48" viewBox="0 0 48 48">
    <g fill="none" fill-rule="evenodd">
        <g>
            <g transform="translate(-621.000000, -28.000000) translate(621.000000, 28.000000)">
                <circle cx="24" cy="24" r="24"/>
                <path fill-rule="nonzero" stroke="#303030" stroke-width="1.25" d="M34.423 29.972l-4.453-2.97c-.565-.373-1.323-.25-1.74.283l-1.298 1.668c-.166.22-.47.284-.71.15l-.247-.136c-.818-.446-1.836-1.001-3.886-3.053-2.05-2.051-2.607-3.07-3.053-3.886l-.135-.247c-.136-.24-.073-.545.147-.713l1.666-1.297c.534-.418.657-1.175.283-1.74l-2.97-4.454c-.382-.575-1.15-.748-1.742-.392l-1.862 1.119c-.585.344-1.014.9-1.198 1.554-.67 2.443-.166 6.66 6.045 12.872C24.211 33.671 27.89 35 30.417 35c.582.002 1.162-.073 1.724-.225.653-.183 1.21-.613 1.554-1.198l1.12-1.861c.356-.593.184-1.36-.392-1.744z"/>
            </g>
        </g>
    </g>
</svg>
