<svg xmlns="http://www.w3.org/2000/svg" width="32" height="32" viewBox="0 0 32 32">
    <defs>
        <filter id="cq2w61ziza" color-interpolation-filters="auto">
            <feColorMatrix in="SourceGraphic" values="0 0 0 0 0.502515 0 0 0 0 0.502515 0 0 0 0 0.502515 0 0 0 1.000000 0"/>
        </filter>
    </defs>
    <g fill="none" fill-rule="evenodd">
        <g>
            <g filter="url(#cq2w61ziza)" transform="translate(-699.000000, -680.000000) translate(699.000000, 680.000000)">
                <g>
                    <path fill="#000" fill-rule="nonzero" d="M10 1c1.105 0 2 .895 2 2s-.895 2-2 2-2-.895-2-2 .895-2 2-2m0-1C8.343 0 7 1.343 7 3s1.343 3 3 3 3-1.343 3-3-1.343-3-3-3zM10 9c4.97 0 9 4.03 9 9 0 .552-.448 1-1 1H2c-.552 0-1-.448-1-1 0-4.97 4.03-9 9-9m0-1C4.477 8 0 12.477 0 18c0 1.105.895 2 2 2h16c1.105 0 2-.895 2-2 0-5.523-4.477-10-10-10z" transform="translate(6.000000, 6.000000)"/>
                </g>
            </g>
        </g>
    </g>
</svg>
