<svg xmlns="http://www.w3.org/2000/svg" width="214" height="192" viewBox="0 0 214 192">
    <g fill="none" fill-rule="evenodd">
        <g>
            <g>
                <path fill="#986D3B" fill-rule="nonzero" d="M0 61.675L91.389 98.34 94 190 0 147.509z" transform="translate(-388.000000, -387.000000) translate(389.000000, 388.000000)"/>
                <path fill="#AD7D46" fill-rule="nonzero" d="M93.63 190L212 128.926 212 33.822 91 98.239z" transform="translate(-388.000000, -387.000000) translate(389.000000, 388.000000)"/>
                <path fill="#E1AA79" fill-rule="nonzero" d="M0 61.676L91.588 98.482 212 33.888 119.313 0z" transform="translate(-388.000000, -387.000000) translate(389.000000, 388.000000)"/>
                <path fill="#E1AA79" fill-rule="nonzero" d="M0 61.676L91.588 98.482 212 33.888 119.313 0z" transform="translate(-388.000000, -387.000000) translate(389.000000, 388.000000)"/>
                <path fill="#F8D2B6" fill-rule="nonzero" stroke="#303030" d="M59.153 85.55L177 21.251 148.773 10.942 32 74.649z" transform="translate(-388.000000, -387.000000) translate(389.000000, 388.000000)"/>
                <path fill="#DDB9A1" fill-rule="nonzero" stroke="#303030" d="M32 75.613L32 102.4 42.915 97.23 59 113.414 59.153 85.55 32 74.649z" transform="translate(-388.000000, -387.000000) translate(389.000000, 388.000000)"/>
                <path stroke="#EAC6AD" stroke-linecap="round" stroke-linejoin="round" d="M47 78.586L160 15.916" transform="translate(-388.000000, -387.000000) translate(389.000000, 388.000000)"/>
                <path stroke="#303030" d="M119.313 0L0 61.515 0 147.456 94.205 190 212 128.917 212 33.799z" transform="translate(-388.000000, -387.000000) translate(389.000000, 388.000000)"/>
                <path stroke="#303030" d="M0 61.639L91.588 98.482 212 33.822M91 98.482L94 190" transform="translate(-388.000000, -387.000000) translate(389.000000, 388.000000)"/>
                <path fill="#CB3E3E" fill-opacity=".7" fill-rule="nonzero" d="M172.98 121.945l.419.184-19.138 11.133s-.105.17-.354-.223l19.072-11.094zm-1.966-.864l.616.314-18.116 10.478s-.118-.039 0-.563l17.5-10.23zm8.79-9.287l.563.262c-.028.007-3.273 1.912-6.507 3.814l-.587.346c-2.538 1.493-4.948 2.914-5.651 3.332l-18.47 10.845s-.616.223-1.153-.746l18.234-10.754 1.18.55v-.366l12.391-7.283zm-10.571 8.462l.472.235-15.89 9.3c.1-.249.219-.49.354-.72l15.064-8.815zm-5.056-2.24l1.52.694-17.829 10.478c-.236-.275-.078-1.48-.078-1.48l16.387-9.692zm-1.415-27.492l-6.34 10.478 14.41-8.828-8.136 11.788 16.047-9.732-1.9 2.738-12.732 7.701.459.21 11.553-6.968-1.912 2.62-8.2 4.95.471.21 7.074-4.257-2.28 3.052-3.143 1.886.838.354L186 96.549l-1.048 1.27-15.182 9.09 1.192.602 12.274-7.334-.812 1.152-10.794 6.444 1.31.642 7.624-4.519-.603.957-6.431 3.837 1.31.603-30.47 17.996c-.351.224-.78.29-1.184.183-.403-.107-.743-.377-.937-.746-.38-1.101-.304-2.308.21-3.353l3.09-4.545-6.549-.472 6.733-8.814-2.856-1.18c-.6-.997-.739-2.205-.38-3.313.243-1.314.98-2.485 2.057-3.274l18.208-11.251zm-.445 26.627l1.349.642-15.824 9.365c.238-.768.635-1.478 1.166-2.082l13.309-7.925zm-16.453-7.452l-.131 8.684 4.06-6.72-3.929-1.964zm32.12 1.257l.497.236-11.016 6.496.026-.537 10.492-6.195zm-9.04-4.152l-12.574 7.531 5.501 2.541v-1.31l11.462-6.81-.485-.21-10.95 6.55v-1.677l9.483-5.672-.497-.183-8.83 5.33v-1.427l7.533-4.506-.642-.157zm7.14 3.288l.655.222c-.08.068-2.116 1.264-4.248 2.512l-.534.312c-2.225 1.3-4.388 2.56-4.388 2.56v-.564l8.515-5.042zm-20.723-7.545l-5.331 8.972 5.056 2.306.275-11.278z" style="mix-blend-mode:multiply" transform="translate(-388.000000, -387.000000) translate(389.000000, 388.000000)"/>
            </g>
        </g>
    </g>
</svg>
