<svg xmlns="http://www.w3.org/2000/svg" width="24" height="24" viewBox="0 0 24 24">
    <defs>
        <filter id="fwjww0968a" color-interpolation-filters="auto">
            <feColorMatrix in="SourceGraphic" values="0 0 0 0 0.188235 0 0 0 0 0.188235 0 0 0 0 0.188235 0 0 0 1.000000 0"/>
        </filter>
    </defs>
    <g fill="none" fill-rule="evenodd">
        <g>
            <path fill="#FFF" d="M0 0H360V760H0z" transform="translate(-180.000000, -216.000000)"/>
            <g>
                <path fill="#FFF" stroke="#979797" stroke-opacity=".299" stroke-width=".25" d="M0.125 0.125H359.875V119.875H0.125z" transform="translate(-180.000000, -216.000000) translate(0.000000, 134.000000)"/>
                <g filter="url(#fwjww0968a)" transform="translate(-180.000000, -216.000000) translate(0.000000, 134.000000)">
                    <path fill-rule="nonzero" stroke="#303030" d="M8.699 6.5c.856 0 1.674.361 2.264 1.002h0l1.235 1.31 1.239-1.314c.585-.633 1.4-.992 2.254-.992.854 0 1.67.36 2.257.995.614.654.954 1.524.952 2.431.003.907-.338 1.78-.953 2.436h0l-.87.93-4.879 5.173L7.321 13.3l-.87-.93c-.634-.684-.951-1.56-.951-2.436 0-.876.317-1.752.952-2.437.583-.633 1.396-.994 2.247-.997z" transform="translate(180.000000, 82.000000)"/>
                </g>
            </g>
        </g>
    </g>
</svg>
