<svg xmlns="http://www.w3.org/2000/svg" width="64" height="64" viewBox="0 0 64 64">
    <g fill="none" fill-rule="evenodd">
        <g>
            <g transform="translate(-620.000000, -36.000000) translate(620.000000, 36.000000)">
                <path d="M0 0H64V64H0z"/>
                <path stroke="#000" stroke-linecap="round" stroke-linejoin="round" d="M24 17.333L37.333 17.333M39.111 17.333L40 17.333M33.778 23.556L34.667 23.556M37.333 27.111L38.222 27.111M32.889 29.778L33.778 29.778M42.667 29.778L43.556 29.778M42.667 36.889L43.556 36.889M42.667 44L43.556 44M48 39.556L48.889 39.556M40.889 24.444L41.778 24.444"/>
                <circle cx="23.111" cy="26.667" r="6.667" stroke="#000" stroke-linecap="round" stroke-linejoin="round"/>
                <path stroke="#000" stroke-linecap="round" stroke-linejoin="round" d="M47.556 26.667c0 3.682-2.985 6.666-6.667 6.666H23.11c3.682 0 6.667-2.984 6.667-6.666 0-3.682-2.985-6.667-6.667-6.667H40.89c3.682 0 6.667 2.985 6.667 6.667z"/>
                <path stroke="#000" stroke-linecap="round" stroke-linejoin="round" d="M51.111 40c0 3.682-2.985 6.667-6.667 6.667H33.778c2.382.08 4.625-1.118 5.884-3.141 1.26-2.023 1.345-4.565.223-6.667-1.123-2.102-3.281-3.446-5.663-3.526-.148-.009-.296-.009-.444 0h10.666c3.682 0 6.667 2.985 6.667 6.667z"/>
                <path stroke="#000" stroke-linecap="round" stroke-linejoin="round" d="M33.778 46.667H19.556c3.025.01 5.677-2.02 6.456-4.944.779-2.924-.511-6.005-3.14-7.5l.24-.89h10.666c-3.682 0-6.667 2.985-6.667 6.667s2.985 6.667 6.667 6.667h0zM34.222 33.333h0c-.148-.009-.296-.009-.444 0h.444z"/>
                <path stroke="#009C84" stroke-linecap="round" stroke-linejoin="round" d="M26.391 28.951c-.746 1.076-1.971 1.717-3.28 1.717-1.309 0-2.534-.641-3.28-1.717l3.28-1.893 3.28 1.893z"/>
                <path stroke="#F9BE00" stroke-linecap="round" stroke-linejoin="round" d="M26.391 28.951l-3.28-1.893v-4.391c1.062-.003 2.08.418 2.831 1.169.75.75 1.171 1.77 1.17 2.83 0 .818-.252 1.616-.72 2.285z"/>
                <path stroke="#E40065" stroke-linecap="round" stroke-linejoin="round" d="M23.111 22.667v4.39l-3.28 1.894c-.85-1.222-.951-2.815-.262-4.135.688-1.32 2.053-2.148 3.542-2.15h0z"/>
                <path stroke="#009C84" stroke-linecap="round" stroke-linejoin="round" d="M37.111 42.213c-.741 1.118-1.993 1.79-3.333 1.79s-2.592-.672-3.334-1.79l3.334-1.92 3.333 1.92z"/>
                <path stroke="#E40065" stroke-linecap="round" stroke-linejoin="round" d="M33.778 36v4.293l-3.334 1.92c-.438-.654-.67-1.425-.666-2.213-.003-1.062.418-2.08 1.169-2.831.75-.75 1.77-1.171 2.83-1.169z"/>
                <path stroke="#F9BE00" stroke-linecap="round" stroke-linejoin="round" d="M37.778 40c.004.788-.228 1.559-.667 2.213l-3.333-1.92V36c1.061-.002 2.08.418 2.83 1.169.751.75 1.172 1.77 1.17 2.831zM23.556 40c.004.788-.228 1.559-.667 2.213l-3.333-1.92V36c1.061-.002 2.08.418 2.83 1.169.751.75 1.172 1.77 1.17 2.831z"/>
                <path stroke="#E40065" stroke-linecap="round" stroke-linejoin="round" d="M19.556 36v4.293l-3.334 1.92c-.438-.654-.67-1.425-.666-2.213-.003-1.062.418-2.08 1.169-2.831.75-.75 1.769-1.171 2.83-1.169z"/>
                <path stroke="#009C84" stroke-linecap="round" stroke-linejoin="round" d="M22.889 42.213c-.741 1.118-1.993 1.79-3.333 1.79-1.341 0-2.593-.672-3.334-1.79l3.334-1.92 3.333 1.92z"/>
                <path stroke="#000" stroke-linecap="round" stroke-linejoin="round" d="M40.445 40c0 3.682-2.985 6.667-6.667 6.667S27.11 43.682 27.11 40s2.985-6.667 6.667-6.667c.148-.009.296-.009.444 0 3.512.226 6.24 3.148 6.223 6.667h0zM26.222 40c0 3.682-2.985 6.667-6.666 6.667-3.682 0-6.667-2.985-6.667-6.667s2.985-6.667 6.667-6.667c1.165-.007 2.31.3 3.315.89 2.08 1.178 3.36 3.387 3.351 5.777z"/>
            </g>
        </g>
    </g>
</svg>
