<svg xmlns="http://www.w3.org/2000/svg" width="64" height="64" viewBox="0 0 64 64">
    <defs>
        <filter id="qkqlbeasxa" color-interpolation-filters="auto">
            <feColorMatrix in="SourceGraphic" values="0 0 0 0 0.894118 0 0 0 0 0.000000 0 0 0 0 0.396078 0 0 0 1.000000 0"/>
        </filter>
    </defs>
    <g fill="none" fill-rule="evenodd">
        <g>
            <g transform="translate(-692.000000, -36.000000) translate(692.000000, 36.000000)">
                <path d="M0 0H64V64H0z"/>
                <circle cx="32" cy="32" r="19.111" stroke="#000" stroke-linecap="round" stroke-linejoin="round"/>
                <path stroke="#000" stroke-linecap="round" stroke-linejoin="round" d="M36.32 32.258c.127-.335.158-.698.089-1.05.842-.468 1.365-1.355 1.369-2.32-.003-.996-.562-1.908-1.45-2.364.071-.243.11-.493.116-.746 0-.303-.051-.603-.15-.89.38-.514.589-1.136.595-1.777 0-1.203-.691-2.3-1.778-2.818V20c0-1.964-1.592-3.556-3.555-3.556-.992.006-1.936.425-2.605 1.156-.445-.175-.918-.265-1.395-.267-1.062-.002-2.08.419-2.831 1.17-.751.75-1.172 1.769-1.17 2.83.007.152.021.304.045.454h-.044c-2.455 0-4.445 1.99-4.445 4.444h0c-1.119.84-1.778 2.157-1.778 3.556.006.157.021.315.045.47-.924.534-1.56 1.453-1.731 2.506-.173 1.052.137 2.126.842 2.926.067 1.607 1.353 2.896 2.96 2.969.448.964 1.355 1.634 2.409 1.778-.025.159-.04.319-.045.48.015 1.694 1.382 3.065 3.076 3.084.16.01.32.01.48 0 .197 1.753 1.525 3.167 3.262 3.475 1.737.308 3.47-.563 4.258-2.142 1.35-.671 2.207-2.047 2.213-3.555.003-.776-.226-1.534-.658-2.178.134-.278.206-.58.214-.889 1.429-.193 2.6-1.23 2.964-2.625.364-1.395-.15-2.872-1.302-3.74v-.088z"/>
                <path stroke="#F9BE00" stroke-linecap="round" stroke-linejoin="round" d="M38.222 22.569c1.256.818 2.067 2.167 2.2 3.66.134 1.493-.425 2.965-1.515 3.993"/>
                <path stroke="#000" stroke-linecap="round" stroke-linejoin="round" d="M37.333 19.324c2.896.702 5.108 3.04 5.65 5.97.541 2.93-.69 5.904-3.143 7.595"/>
                <path stroke="#000" stroke-linecap="round" stroke-linejoin="round" d="M36.444 16.48c4.59.395 8.347 3.81 9.178 8.341.83 4.53-1.472 9.057-5.622 11.055M40.889 37.333c-.741 1.95-2.41 3.398-4.445 3.858"/>
                <path stroke="#F9BE00" stroke-linecap="round" stroke-linejoin="round" d="M43.902 36.444c-.583 3.852-3.606 6.875-7.458 7.458"/>
                <path stroke="#000" stroke-linecap="round" stroke-linejoin="round" d="M46.587 33.778c.053.442.08.887.08 1.333 0 6.382-5.174 11.556-11.556 11.556"/>
                <path stroke="#F9BE00" stroke-linecap="round" stroke-linejoin="round" d="M28.871 21.333c-.178 1.77-1.395 3.264-3.093 3.796"/>
                <path stroke="#004097" stroke-linecap="round" stroke-linejoin="round" d="M21.333 28.924c1.297.22 2.24 1.352 2.223 2.667"/>
                <path stroke="#F9BE00" stroke-linecap="round" stroke-linejoin="round" d="M24.889 39.591c1.297.22 2.24 1.351 2.222 2.667"/>
                <path stroke="#009C84" stroke-linecap="round" stroke-linejoin="round" d="M23.111 36L24 36"/>
                <path stroke="#004097" stroke-linecap="round" stroke-linejoin="round" d="M31.111 37.778L32 37.778"/>
                <path stroke="#009C84" stroke-linecap="round" stroke-linejoin="round" d="M32.889 25.333L33.778 25.333M31.111 20L32 20"/>
                <g stroke-linecap="round" stroke-linejoin="round" filter="url(#qkqlbeasxa)">
                    <g>
                        <path stroke="#000" d="M3.556 0L5.333 6.222M0 2.667L6.222 1.778M.889 5.333L7.111 3.556" transform="translate(26.666667, 27.555556)"/>
                    </g>
                </g>
            </g>
        </g>
    </g>
</svg>
