<svg xmlns="http://www.w3.org/2000/svg" width="64" height="64" viewBox="0 0 64 64">
    <g fill="none" fill-rule="evenodd">
        <g>
            <g>
                <path d="M0 0H64V64H0z" transform="translate(-764.000000, -36.000000) translate(764.000000, 36.000000)"/>
                <path stroke="#000" stroke-linecap="round" stroke-linejoin="round" d="M30.098 19.822c-3.474.154-6.28 2.888-6.525 6.356-.69-.45-1.496-.687-2.32-.685-.4-.002-.798.055-1.182.17h0c-.91-1.301-.753-3.069.373-4.187.296-.303.65-.541 1.04-.703-.016-2.238 1.662-4.126 3.887-4.37 2.224-.246 4.274 1.231 4.745 3.42h-.018z" transform="translate(-764.000000, -36.000000) translate(764.000000, 36.000000)"/>
                <path stroke="#000" stroke-linecap="round" stroke-linejoin="round" d="M28.444 31.556c.62-1.009.644-2.273.065-3.305-.58-1.031-1.673-1.668-2.856-1.664-.423.001-.842.083-1.235.24l-.178-.16c-.202-.197-.426-.37-.667-.516.245-3.468 3.051-6.202 6.525-6.355h.31c2.93.007 5.53 1.88 6.463 4.657.773.365 1.45.907 1.973 1.583-1.059 1.72-.927 3.92.33 5.502l-10.73.018z" transform="translate(-764.000000, -36.000000) translate(764.000000, 36.000000)"/>
                <path stroke="#000" stroke-linecap="round" stroke-linejoin="round" d="M28.889 29.858c.01.596-.144 1.183-.445 1.698H17.236c-.49-1.152-.46-2.458.082-3.586.54-1.127 1.54-1.968 2.744-2.308h0c.384-.114.782-.171 1.182-.169.824-.002 1.63.236 2.32.685.242.146.465.319.667.515l.142.134c.393-.157.813-.239 1.236-.24.869-.003 1.703.34 2.319.955.615.613.96 1.447.96 2.316zM48.196 31.556h-9.023c-1.256-1.583-1.388-3.782-.329-5.503.191-.325.424-.624.694-.889 1.535-1.554 3.929-1.87 5.815-.767 1.886 1.102 2.785 3.342 2.185 5.443.366.504.592 1.096.658 1.716z" transform="translate(-764.000000, -36.000000) translate(764.000000, 36.000000)"/>
                <path stroke="#000" stroke-linecap="round" stroke-linejoin="round" d="M51.111 31.556L47.556 47.556 16.444 47.556 12.889 31.556z" transform="translate(-764.000000, -36.000000) translate(764.000000, 36.000000)"/>
                <path stroke="#E40065" stroke-linecap="round" stroke-linejoin="round" d="M16 34.222L48 34.222M17.333 44.889L46.667 44.889" transform="translate(-764.000000, -36.000000) translate(764.000000, 36.000000)"/>
                <path stroke="#009C84" stroke-linecap="round" stroke-linejoin="round" d="M44.444 29.778L45.333 29.778" transform="translate(-764.000000, -36.000000) translate(764.000000, 36.000000)"/>
                <path stroke="#F9BE00" stroke-linecap="round" stroke-linejoin="round" d="M40.889 28L41.778 28" transform="translate(-764.000000, -36.000000) translate(764.000000, 36.000000)"/>
                <path stroke="#000" stroke-linecap="round" stroke-linejoin="round" d="M28.444 24.444L29.333 24.444" transform="translate(-764.000000, -36.000000) translate(764.000000, 36.000000)"/>
                <path stroke="#009C84" stroke-linecap="round" stroke-linejoin="round" d="M24.889 19.111L25.778 19.111" transform="translate(-764.000000, -36.000000) translate(764.000000, 36.000000)"/>
                <path stroke="#000" stroke-linecap="round" stroke-linejoin="round" d="M19.556 28.889L20.444 28.889" transform="translate(-764.000000, -36.000000) translate(764.000000, 36.000000)"/>
                <path stroke="#F9BE00" stroke-linecap="round" stroke-linejoin="round" d="M24 29.778L24.889 29.778" transform="translate(-764.000000, -36.000000) translate(764.000000, 36.000000)"/>
                <path stroke="#009C84" stroke-linecap="round" stroke-linejoin="round" d="M31.111 28.889L32 28.889" transform="translate(-764.000000, -36.000000) translate(764.000000, 36.000000)"/>
                <path stroke="#F9BE00" stroke-linecap="round" stroke-linejoin="round" d="M32.889 26.222L33.778 26.222" transform="translate(-764.000000, -36.000000) translate(764.000000, 36.000000)"/>
                <path fill="#FFF" fill-rule="nonzero" stroke="#000" stroke-linecap="round" stroke-linejoin="round" d="M45.333 24L50.667 16.889" transform="translate(-764.000000, -36.000000) translate(764.000000, 36.000000)"/>
            </g>
        </g>
    </g>
</svg>
