<svg xmlns="http://www.w3.org/2000/svg" width="64" height="64" viewBox="0 0 64 64">
    <g fill="none" fill-rule="evenodd">
        <g>
            <g>
                <path stroke="#009C84" stroke-linecap="round" stroke-linejoin="round" d="M41.511 20.667L41.511 14.436M40.658 20.436L36.222 16.009M46 24.871L41.813 21.36M41.511 20.676L47.742 20.684M42.151 20.436L46.284 16.409" transform="translate(-836.000000, -36.000000) translate(836.000000, 36.000000)"/>
                <path stroke="#000" d="M41.102 13.982c-3.71.035-6.738 2.978-6.88 6.685h7.556l.284 6.222C45.512 26.524 48 24.16 48 20.667c-.068-3.747-3.15-6.734-6.898-6.685z" transform="translate(-836.000000, -36.000000) translate(836.000000, 36.000000)"/>
                <path stroke="#000" d="M42.329 32.96l-.551-12.293H22.222l-.56 12.293S20.81 42.889 32 42.889c11.191 0 10.329-9.929 10.329-9.929z" transform="translate(-836.000000, -36.000000) translate(836.000000, 36.000000)"/>
                <path stroke="#F9BE00" d="M40.649 32.853L40 25.111H24l-.649 7.742s-.72 8.258 8.649 8.258 8.649-8.258 8.649-8.258z" transform="translate(-836.000000, -36.000000) translate(836.000000, 36.000000)"/>
                <path stroke="#000" d="M32 42.862L32 47.164" transform="translate(-836.000000, -36.000000) translate(836.000000, 36.000000)"/>
                <path stroke="#004097" stroke-linecap="round" stroke-linejoin="round" d="M20.889 14.444L26.053 16.169 30.364 34.249" transform="translate(-836.000000, -36.000000) translate(836.000000, 36.000000)"/>
                <path stroke="#000" stroke-width=".889" d="M32 46.738l-5.938 2.764c-.05.029-.077.087-.065.144.013.057.06.1.119.105h11.768c.059-.005.106-.048.119-.105.012-.057-.014-.115-.065-.144L32 46.738z" transform="translate(-836.000000, -36.000000) translate(836.000000, 36.000000)"/>
                <path d="M37.271 35.893c.228-.365.413-.756.551-1.164l-3.555-1.076 3.004 2.24z" transform="translate(-836.000000, -36.000000) translate(836.000000, 36.000000)"/>
                <path d="M32.08 32.524l.133-.408 5.814 1.777c.057-.308.086-.62.089-.933.003-2.266-1.359-4.31-3.451-5.18-2.093-.87-4.503-.393-6.106 1.208-1.604 1.601-2.084 4.01-1.218 6.104.866 2.094 2.909 3.46 5.175 3.46h.506l-1.36-5.912.418-.116z" transform="translate(-836.000000, -36.000000) translate(836.000000, 36.000000)"/>
                <path d="M35.804 37.476c.354-.259.676-.557.96-.89l-2.986-2.248 2.026 3.138zM33.876 38.382c.416-.104.818-.256 1.2-.453l-2.027-3.12.827 3.573z" transform="translate(-836.000000, -36.000000) translate(836.000000, 36.000000)"/>
                <path fill="#E40065" fill-rule="nonzero" d="M35.804 37.476l.472.72c.436-.31.83-.674 1.173-1.085l-.685-.515c-.285.329-.607.624-.96.88zM33.876 38.382l.195.836c.517-.122 1.016-.31 1.485-.56l-.472-.73c-.384.198-.79.35-1.208.454zM37.822 34.729c-.138.408-.323.799-.55 1.164l.684.525c.286-.447.516-.928.684-1.431l-.818-.258z" transform="translate(-836.000000, -36.000000) translate(836.000000, 36.000000)"/>
                <path d="M0 0H64V64H0z" transform="translate(-836.000000, -36.000000) translate(836.000000, 36.000000)"/>
            </g>
        </g>
    </g>
</svg>
