<?xml version="1.0" encoding="UTF-8"?>
<svg width="32px" height="32px" viewBox="0 0 32 32" version="1.1" xmlns="http://www.w3.org/2000/svg" xmlns:xlink="http://www.w3.org/1999/xlink">
    <title>E75F0372-ED7A-4FC9-B53B-137225935DCF</title>
    <defs>
        <filter color-interpolation-filters="auto" id="filter-1">
            <feColorMatrix in="SourceGraphic" type="matrix" values="0 0 0 0 0.937255 0 0 0 0 0.462745 0 0 0 0 0.133333 0 0 0 1.000000 0"></feColorMatrix>
        </filter>
    </defs>
    <g id="서산시_IOS" stroke="none" stroke-width="1" fill="none" fill-rule="evenodd">
        <g id="24.알림" transform="translate(-216.000000, -732.000000)">
            <rect fill="#FFFFFF" x="0" y="0" width="375" height="812"></rect>
            <g id="bottom_bar" transform="translate(0.000000, 730.000000)">
                <rect id="Rectangle" fill="#FFFFFF" x="0" y="0" width="375" height="82"></rect>
                <g id="alert/push" transform="translate(216.000000, 2.000000)" filter="url(#filter-1)">
                    <g id="자산-249" transform="translate(7.000000, 6.500000)">
                        <path d="M9,0.5 C5.13400675,0.5 2,3.63400675 2,7.5 L2,13.5 C0.8954305,13.5 0,14.3954305 0,15.5 C0,16.6045695 0.8954305,17.5 2,17.5 L7,17.5 C7,18.6045695 7.8954305,19.5 9,19.5 C10.1045695,19.5 11,18.6045695 11,17.5 L16,17.5 C17.1045695,17.5 18,16.6045695 18,15.5 C18,14.3954305 17.1045695,13.5 16,13.5 L16,7.5 C16,3.63400675 12.8659932,0.5 9,0.5 Z" id="Shape" fill="#000000" fill-rule="nonzero"></path>
                        <line x1="9" y1="0.5" x2="9" y2="0.5" id="Path" stroke="#000000" stroke-width="2" stroke-linecap="round" stroke-linejoin="round"></line>
                        <rect id="Rectangle" fill="#000000" fill-rule="nonzero" x="7" y="16.5" width="3" height="1"></rect>
                    </g>
                </g>
            </g>
        </g>
    </g>
</svg>