<svg xmlns="http://www.w3.org/2000/svg" width="32" height="32" viewBox="0 0 32 32">
    <defs>
        <filter id="49uoi2pfya" color-interpolation-filters="auto">
            <feColorMatrix in="SourceGraphic" values="0 0 0 0 0.937255 0 0 0 0 0.462745 0 0 0 0 0.133333 0 0 0 1.000000 0"/>
        </filter>
    </defs>
    <g fill="none" fill-rule="evenodd">
        <g>
            <path fill="#FFF" d="M0 0H375V812H0z" transform="translate(-123.000000, -732.000000)"/>
            <g>
                <path fill="#FFF" d="M0 0H375V82H0z" transform="translate(-123.000000, -732.000000) translate(0.000000, 730.000000)"/>
                <g filter="url(#49uoi2pfya)" transform="translate(-123.000000, -732.000000) translate(0.000000, 730.000000) translate(123.000000, 2.000000)">
                    <g transform="translate(4.800000, 7.200000)">
                        <path stroke="#000" stroke-linecap="round" stroke-linejoin="round" d="M0 0L3.904 0 6.752 11.69 18.632 11.69 21.275 2.688 4.867 2.688M18.604 14.388H6.687c-.745 0-1.348-.604-1.348-1.349s.603-1.349 1.348-1.349h11.945"/>
                        <circle cx="7.833" cy="16.724" r="1.5" fill="#000" stroke="#000"/>
                        <circle cx="16.633" cy="16.724" r="1.5" fill="#000" stroke="#000"/>
                        <path fill="#000" d="M4.867 2.688L21.275 2.688 18.633 11.69 6.752 11.69z"/>
                    </g>
                </g>
            </g>
        </g>
    </g>
</svg>
