<svg xmlns="http://www.w3.org/2000/svg" width="32" height="32" viewBox="0 0 32 32">
    <defs>
        <filter id="k4upo0gtma" color-interpolation-filters="auto">
            <feColorMatrix in="SourceGraphic" values="0 0 0 0 0.937255 0 0 0 0 0.462745 0 0 0 0 0.133333 0 0 0 1.000000 0"/>
        </filter>
    </defs>
    <g fill="none" fill-rule="evenodd">
        <g>
            <path fill="#FFF" d="M0 0H375V812H0z" transform="translate(-31.000000, -734.000000)"/>
            <g>
                <path fill="#FFF" d="M0 0H375V82H0z" transform="translate(-31.000000, -734.000000) translate(0.000000, 730.000000)"/>
                <g filter="url(#k4upo0gtma)" transform="translate(-31.000000, -734.000000) translate(0.000000, 730.000000) translate(31.000000, 4.000000)">
                    <path fill="#000" stroke="#000" d="M16 7.349c.243 0 .486.08.687.241h0l8 6.4c.261.209.413.525.413.859h0V24c0 .304-.123.579-.322.778-.2.199-.474.322-.778.322h0H8c-.304 0-.579-.123-.778-.322-.199-.2-.322-.474-.322-.778h0v-9.151c0-.334.152-.65.413-.859h0l8-6.4c.2-.16.444-.241.687-.241z"/>
                </g>
            </g>
        </g>
    </g>
</svg>
