<svg xmlns="http://www.w3.org/2000/svg" width="32" height="32" viewBox="0 0 32 32">
    <g fill="none" fill-rule="evenodd">
        <g stroke="gray">
            <g>
                <path d="M16 7.349c.243 0 .486.08.687.241h0l8 6.4c.261.209.413.525.413.859h0V24c0 .304-.123.579-.322.778-.2.199-.474.322-.778.322h0H8c-.304 0-.579-.123-.778-.322-.199-.2-.322-.474-.322-.778h0v-9.151c0-.334.152-.65.413-.859h0l8-6.4c.2-.16.444-.241.687-.241z" transform="translate(-429.000000, -682.000000) translate(429.000000, 682.000000)"/>
            </g>
        </g>
    </g>
</svg>
