<svg xmlns="http://www.w3.org/2000/svg" width="48" height="48" viewBox="0 0 48 48">
    <g fill="none" fill-rule="evenodd">
        <g>
            <g transform="translate(-677.000000, -28.000000) translate(677.000000, 28.000000)">
                <circle cx="24" cy="24" r="24"/>
                <path fill-rule="nonzero" stroke="#303030" stroke-width="1.25" d="M18.165 13.625c1.485 0 2.904.626 3.925 1.735h0l1.907 2.022 1.912-2.027c1.015-1.097 2.429-1.72 3.91-1.72 1.48 0 2.895.623 3.913 1.724 1.059 1.128 1.647 2.63 1.643 4.194.006 1.565-.583 3.071-1.644 4.203h0l-1.45 1.55-8.284 8.783-8.281-8.78-1.45-1.55c-1.095-1.18-1.641-2.69-1.641-4.202 0-1.51.546-3.022 1.642-4.203 1.011-1.097 2.421-1.724 3.898-1.729z"/>
            </g>
        </g>
    </g>
</svg>
