<svg xmlns="http://www.w3.org/2000/svg" width="48" height="48" viewBox="0 0 48 48">
    <g fill="none" fill-rule="evenodd">
        <g>
            <g transform="translate(-733.000000, -28.000000) translate(733.000000, 28.000000)">
                <circle cx="24" cy="24" r="24"/>
                <path fill-rule="nonzero" stroke="#303030" stroke-width="1.25" d="M24 12c5.49.076 9.923 4.468 10 9.908 0 6.128-7.514 12.059-10 13.842-2.486-1.783-10-7.714-10-13.842.077-5.44 4.51-9.832 10-9.908zm0 5c-2.071 0-3.75 1.679-3.75 3.75 0 2.071 1.679 3.75 3.75 3.75 2.071 0 3.75-1.679 3.75-3.75 0-2.071-1.679-3.75-3.75-3.75z"/>
            </g>
        </g>
    </g>
</svg>
