<svg xmlns="http://www.w3.org/2000/svg" width="48" height="48" viewBox="0 0 48 48">
    <defs>
        <filter id="e0zxz8jcha" color-interpolation-filters="auto">
            <feColorMatrix in="SourceGraphic" values="0 0 0 0 0.188235 0 0 0 0 0.188235 0 0 0 0 0.188235 0 0 0 1.000000 0"/>
        </filter>
    </defs>
    <g fill="none" fill-rule="evenodd">
        <g>
            <g transform="translate(-789.000000, -28.000000) translate(789.000000, 28.000000)">
                <circle cx="24" cy="24" r="24"/>
                <g filter="url(#e0zxz8jcha)">
                    <g>
                        <g transform="translate(11.375000, 11.375000)">
                            <path fill="#303030" fill-rule="nonzero" d="M21.07 0c1.753 0 3.18 1.396 3.18 3.125v8.75H23v-8.75c0-.983-.781-1.794-1.78-1.87l-.15-.005H3.18c-1.069 0-1.93.843-1.93 1.875v20c0 1.032.861 1.875 1.93 1.875h10.222v1.042c0 .072.011.141.031.208H3.181C1.427 26.25 0 24.854 0 23.125v-20C0 1.396 1.427 0 3.18 0z"/>
                            <rect width="13" height="1" x="5.625" y="6.625" stroke="#000" stroke-width="2" rx=".5"/>
                            <rect width="13" height="1" x="5.625" y="10.625" stroke="#000" stroke-width="2" rx=".5"/>
                            <rect width="11" height="1" x="5.625" y="14.625" stroke="#000" stroke-width="2" rx=".5"/>
                            <rect width="7" height="1" x="5.625" y="18.625" stroke="#000" stroke-width="2" rx=".5"/>
                        </g>
                        <path fill-rule="nonzero" stroke="#FFF" stroke-width="1.25" d="M16.25 25v-4.173l7.27-7.317 4.22 4.22L20.423 25H16.25z" transform="translate(11.375000, 11.375000)"/>
                    </g>
                </g>
            </g>
        </g>
    </g>
</svg>
