<svg xmlns="http://www.w3.org/2000/svg" width="32" height="32" viewBox="0 0 32 32">
    <defs>
        <filter id="ywx7pozuga" color-interpolation-filters="auto">
            <feColorMatrix in="SourceGraphic" values="0 0 0 0 0.937255 0 0 0 0 0.462745 0 0 0 0 0.133333 0 0 0 1.000000 0"/>
        </filter>
    </defs>
    <g fill="none" fill-rule="evenodd">
        <g>
            <path fill="#FFF" d="M0 0H375V812H0z" transform="translate(-313.000000, -732.000000)"/>
            <g>
                <path fill="#FFF" d="M0 0H375V82H0z" transform="translate(-313.000000, -732.000000) translate(0.000000, 730.000000)"/>
                <g filter="url(#ywx7pozuga)" transform="translate(-313.000000, -732.000000) translate(0.000000, 730.000000) translate(313.000000, 2.000000)">
                    <g fill="#000" fill-rule="nonzero">
                        <path d="M10 0C8.343 0 7 1.343 7 3s1.343 3 3 3 3-1.343 3-3-1.343-3-3-3zM10 8C4.477 8 0 12.477 0 18c0 1.105.895 2 2 2h16c1.105 0 2-.895 2-2 0-5.523-4.477-10-10-10z" transform="translate(6.000000, 6.000000)"/>
                    </g>
                </g>
            </g>
        </g>
    </g>
</svg>
