<svg xmlns="http://www.w3.org/2000/svg" width="32" height="32" viewBox="0 0 32 32">
    <g fill="none" fill-rule="evenodd">
        <g fill="#000" fill-rule="nonzero">
            <g>
                <g>
                    <path d="M4.93 7.5C4.693 6.629 3.903 6.024 3 6.024S1.307 6.63 1.07 7.5H0v1h1.07c.237.871 1.027 1.476 1.93 1.476S4.693 9.37 4.93 8.5H18v-1H4.93zm-1.07 1c-.18.304-.507.49-.86.49s-.68-.186-.86-.49c-.179-.31-.179-.69 0-1 .18-.304.507-.49.86-.49s.68.186.86.49c.179.31.179.69 0 1zM15.93 13.5c-.237-.871-1.027-1.476-1.93-1.476s-1.693.605-1.93 1.476H0v1h12.07c.237.871 1.027 1.476 1.93 1.476s1.693-.605 1.93-1.476H18v-1h-2.07zm-1.07 1c-.18.304-.507.49-.86.49s-.68-.186-.86-.49c-.179-.31-.179-.69 0-1 .18-.304.507-.49.86-.49s.68.186.86.49c.179.31.179.69 0 1zM10.93 1.5C10.693.629 9.903.024 9 .024S7.307.63 7.07 1.5H0v1h7.07c.237.871 1.027 1.476 1.93 1.476s1.693-.605 1.93-1.476H18v-1h-7.07zm-1.07 1c-.18.304-.507.49-.86.49s-.68-.186-.86-.49c-.179-.31-.179-.69 0-1 .18-.304.507-.49.86-.49s.68.186.86.49c.179.31.179.69 0 1z" transform="translate(-272.000000, -36.000000) translate(272.000000, 36.000000) translate(7.000000, 8.000000)"/>
                </g>
            </g>
        </g>
    </g>
</svg>
