<svg xmlns="http://www.w3.org/2000/svg" width="24" height="24" viewBox="0 0 24 24">
    <defs>
        <filter id="06lgik51ia" color-interpolation-filters="auto">
            <feColorMatrix in="SourceGraphic" values="0 0 0 0 0.188235 0 0 0 0 0.188235 0 0 0 0 0.188235 0 0 0 1.000000 0"/>
        </filter>
    </defs>
    <g fill="none" fill-rule="evenodd">
        <g>
            <path fill="#FFF" d="M0 0H360V760H0z" transform="translate(-132.000000, -216.000000)"/>
            <g>
                <path fill="#FFF" stroke="#979797" stroke-opacity=".299" stroke-width=".25" d="M0.125 0.125H359.875V119.875H0.125z" transform="translate(-132.000000, -216.000000) translate(0.000000, 134.000000)"/>
                <g filter="url(#06lgik51ia)" transform="translate(-132.000000, -216.000000) translate(0.000000, 134.000000)">
                    <g fill-rule="nonzero" stroke="#303030">
                        <path d="M6.435 0c2.4.015 4.594 1.354 5.704 3.481 1.11 2.127.955 4.694-.405 6.671l-.18.266.058.31.237 1.166-1.166-.237-.31-.058-.266.18c-2.556 1.784-6.023 1.481-8.23-.72-2.503-2.526-2.503-6.596 0-9.122C3.074.704 4.717.006 6.435 0" transform="translate(132.000000, 82.000000) translate(5.572354, 5.520006)"/>
                    </g>
                </g>
            </g>
        </g>
    </g>
</svg>
