<svg xmlns="http://www.w3.org/2000/svg" width="24" height="24" viewBox="0 0 24 24">
    <g fill="none" fill-rule="evenodd">
        <g>
            <path fill="#FFF" d="M0 0H360V760H0z" transform="translate(-312.000000, -370.000000)"/>
            <g>
                <path d="M0 0H328V44H0z" transform="translate(-312.000000, -370.000000) translate(16.000000, 360.000000)"/>
            </g>
            <g fill="#004097">
                <path d="M12.707 8.707l5.586 5.586c.39.39.39 1.024 0 1.414-.188.188-.442.293-.707.293H6.414c-.552 0-1-.448-1-1 0-.265.106-.52.293-.707l5.586-5.586c.39-.39 1.024-.39 1.414 0z" transform="translate(-312.000000, -370.000000) translate(312.000000, 370.000000) translate(12.000000, 12.000000) scale(1, -1) translate(-12.000000, -12.000000)"/>
            </g>
        </g>
    </g>
</svg>
